<svg width="200" height="200" viewBox="0 0 200 200" fill="none" xmlns="http://www.w3.org/2000/svg">
<rect width="200" height="200" fill="#584C91"/>
<path d="M41.1221 95V78.8867H51.4346V82.5928H45.376V85.085H51.0049V88.791H45.376V95H41.1221ZM67.7412 95H63.0361L59.9639 89.6719H57.7295V95H53.4756V78.8867H60.2861C61.6826 78.8867 62.8714 79.098 63.8525 79.5205C64.8337 79.943 65.582 80.5589 66.0977 81.3682C66.6204 82.1702 66.8818 83.1406 66.8818 84.2793C66.8818 85.3464 66.6527 86.2666 66.1943 87.04C65.736 87.8135 65.0736 88.4222 64.207 88.8662L67.7412 95ZM57.7295 86.3955H59.9531C60.8053 86.3955 61.4463 86.238 61.876 85.9229C62.3128 85.6006 62.5312 85.1243 62.5312 84.4941C62.5312 83.8639 62.3128 83.3913 61.876 83.0762C61.4463 82.7539 60.8053 82.5928 59.9531 82.5928H57.7295V86.3955ZM77.1514 95.3223C75.9196 95.3223 74.7809 95.1146 73.7354 94.6992C72.6969 94.2767 71.791 93.6895 71.0176 92.9375C70.2513 92.1784 69.6569 91.2904 69.2344 90.2734C68.8118 89.2565 68.6006 88.1465 68.6006 86.9434C68.6006 85.7402 68.8118 84.6302 69.2344 83.6133C69.6569 82.5964 70.2513 81.7119 71.0176 80.96C71.791 80.2008 72.6969 79.6136 73.7354 79.1982C74.7809 78.7757 75.9196 78.5645 77.1514 78.5645C78.3903 78.5645 79.529 78.7757 80.5674 79.1982C81.6058 79.6136 82.5046 80.2008 83.2637 80.96C84.0299 81.7119 84.6243 82.5964 85.0469 83.6133C85.4694 84.6302 85.6807 85.7402 85.6807 86.9434C85.6807 88.1465 85.4694 89.2565 85.0469 90.2734C84.6243 91.2904 84.0299 92.1784 83.2637 92.9375C82.5046 93.6895 81.6058 94.2767 80.5674 94.6992C79.529 95.1146 78.3903 95.3223 77.1514 95.3223ZM77.1514 91.6162C77.7458 91.6162 78.2972 91.498 78.8057 91.2617C79.3141 91.0254 79.7546 90.696 80.127 90.2734C80.5065 89.8438 80.8001 89.346 81.0078 88.7803C81.2227 88.2145 81.3301 87.6022 81.3301 86.9434C81.3301 86.2845 81.2227 85.6722 81.0078 85.1064C80.8001 84.5407 80.5065 84.0465 80.127 83.624C79.7546 83.1943 79.3141 82.8613 78.8057 82.625C78.2972 82.3887 77.7458 82.2705 77.1514 82.2705C76.557 82.2705 76.002 82.3887 75.4863 82.625C74.9779 82.8613 74.5339 83.1943 74.1543 83.624C73.7747 84.0465 73.4775 84.5407 73.2627 85.1064C73.055 85.6722 72.9512 86.2845 72.9512 86.9434C72.9512 87.6022 73.055 88.2145 73.2627 88.7803C73.4775 89.346 73.7747 89.8438 74.1543 90.2734C74.5339 90.696 74.9779 91.0254 75.4863 91.2617C76.002 91.498 76.557 91.6162 77.1514 91.6162ZM105.285 95H101.031V84.9883L97.9053 92.293H94.7686L91.6533 85.0098V95H87.3994V78.8867H92.7705L96.3369 87.502L99.9141 78.8867H105.285V95ZM111.419 93.1523L113.417 89.9082C113.94 90.3164 114.427 90.6494 114.878 90.9072C115.336 91.165 115.78 91.3548 116.21 91.4766C116.647 91.5911 117.091 91.6484 117.542 91.6484C117.986 91.6484 118.366 91.5983 118.681 91.498C118.996 91.3906 119.236 91.2402 119.4 91.0469C119.572 90.8464 119.658 90.61 119.658 90.3379C119.658 89.9941 119.536 89.7005 119.293 89.457C119.049 89.2135 118.724 88.9951 118.315 88.8018C117.914 88.6084 117.474 88.415 116.994 88.2217C116.479 88.014 115.952 87.7848 115.415 87.5342C114.878 87.2764 114.384 86.9648 113.933 86.5996C113.481 86.2344 113.116 85.7904 112.837 85.2676C112.558 84.7376 112.418 84.0931 112.418 83.334C112.418 82.3314 112.669 81.4756 113.17 80.7666C113.678 80.0505 114.369 79.5062 115.243 79.1338C116.124 78.7542 117.119 78.5645 118.229 78.5645C119.039 78.5645 119.895 78.6719 120.797 78.8867C121.699 79.1016 122.612 79.4382 123.536 79.8965L121.882 83.3125C121.366 82.9974 120.8 82.7467 120.185 82.5605C119.576 82.3672 119.017 82.2705 118.509 82.2705C118.158 82.2705 117.85 82.3171 117.585 82.4102C117.327 82.5033 117.127 82.6393 116.983 82.8184C116.84 82.9902 116.769 83.1943 116.769 83.4307C116.769 83.7458 116.89 84.0251 117.134 84.2686C117.377 84.5049 117.7 84.7233 118.101 84.9238C118.502 85.1243 118.938 85.3285 119.411 85.5361C119.927 85.7581 120.453 86.0052 120.99 86.2773C121.535 86.5495 122.032 86.8717 122.483 87.2441C122.942 87.6165 123.311 88.0641 123.59 88.5869C123.869 89.1025 124.009 89.722 124.009 90.4453C124.009 91.4121 123.744 92.2643 123.214 93.002C122.691 93.7324 121.957 94.3018 121.012 94.71C120.074 95.1182 118.981 95.3223 117.735 95.3223C116.575 95.3223 115.458 95.1361 114.384 94.7637C113.31 94.3913 112.321 93.8542 111.419 93.1523ZM128.896 95H124.438L130.733 78.8867H135.191L141.476 95H137.018L135.976 92.1318H129.938L128.896 95ZM131.292 88.4258H134.633L132.957 83.8281L131.292 88.4258ZM137.275 73.7197C137.275 74.7581 137.068 75.5423 136.652 76.0723C136.237 76.6022 135.614 76.8672 134.783 76.8672C134.282 76.8672 133.87 76.7848 133.548 76.6201C133.226 76.4554 132.932 76.2835 132.667 76.1045C132.445 75.9541 132.223 75.8216 132.001 75.707C131.786 75.5853 131.532 75.5244 131.238 75.5244C130.458 75.5244 130.046 75.9434 130.003 76.7812H128.628C128.628 74.6758 129.48 73.623 131.185 73.623C131.715 73.623 132.148 73.709 132.484 73.8809C132.828 74.0456 133.143 74.221 133.43 74.4072C133.659 74.5505 133.877 74.6794 134.085 74.7939C134.3 74.9085 134.54 74.9658 134.805 74.9658C135.492 74.9658 135.857 74.5505 135.9 73.7197H137.275ZM150.778 95.3223C149.547 95.3223 148.408 95.1146 147.362 94.6992C146.324 94.2767 145.418 93.6895 144.645 92.9375C143.878 92.1784 143.284 91.2904 142.861 90.2734C142.439 89.2565 142.228 88.1465 142.228 86.9434C142.228 85.7402 142.439 84.6302 142.861 83.6133C143.284 82.5964 143.878 81.7119 144.645 80.96C145.418 80.2008 146.324 79.6136 147.362 79.1982C148.408 78.7757 149.547 78.5645 150.778 78.5645C152.017 78.5645 153.156 78.7757 154.194 79.1982C155.233 79.6136 156.132 80.2008 156.891 80.96C157.657 81.7119 158.251 82.5964 158.674 83.6133C159.096 84.6302 159.308 85.7402 159.308 86.9434C159.308 88.1465 159.096 89.2565 158.674 90.2734C158.251 91.2904 157.657 92.1784 156.891 92.9375C156.132 93.6895 155.233 94.2767 154.194 94.6992C153.156 95.1146 152.017 95.3223 150.778 95.3223ZM150.778 91.6162C151.373 91.6162 151.924 91.498 152.433 91.2617C152.941 91.0254 153.382 90.696 153.754 90.2734C154.133 89.8438 154.427 89.346 154.635 88.7803C154.85 88.2145 154.957 87.6022 154.957 86.9434C154.957 86.2845 154.85 85.6722 154.635 85.1064C154.427 84.5407 154.133 84.0465 153.754 83.624C153.382 83.1943 152.941 82.8613 152.433 82.625C151.924 82.3887 151.373 82.2705 150.778 82.2705C150.184 82.2705 149.629 82.3887 149.113 82.625C148.605 82.8613 148.161 83.1943 147.781 83.624C147.402 84.0465 147.104 84.5407 146.89 85.1064C146.682 85.6722 146.578 86.2845 146.578 86.9434C146.578 87.6022 146.682 88.2145 146.89 88.7803C147.104 89.346 147.402 89.8438 147.781 90.2734C148.161 90.696 148.605 91.0254 149.113 91.2617C149.629 91.498 150.184 91.6162 150.778 91.6162ZM17.9941 122V105.887H23.8701C25.2523 105.887 26.4482 106.119 27.458 106.585C28.4749 107.043 29.2555 107.699 29.7998 108.551C30.3512 109.396 30.627 110.402 30.627 111.569C30.627 112.737 30.3512 113.75 29.7998 114.609C29.2555 115.462 28.4821 116.12 27.4795 116.586C26.4769 117.051 25.2917 117.284 23.9238 117.284H22.248V122H17.9941ZM22.248 113.578H23.4512C24.3678 113.578 25.0661 113.406 25.5459 113.062C26.0329 112.719 26.2764 112.221 26.2764 111.569C26.2764 110.932 26.0329 110.445 25.5459 110.108C25.0589 109.765 24.3607 109.593 23.4512 109.593H22.248V113.578ZM34.9775 122H30.5195L36.8145 105.887H41.2725L47.5566 122H43.0986L42.0566 119.132H36.0195L34.9775 122ZM37.373 115.426H40.7139L39.0381 110.828L37.373 115.426ZM62.9609 105.887V114.728C62.9609 116.303 62.6709 117.66 62.0908 118.799C61.5179 119.93 60.6908 120.8 59.6094 121.409C58.5352 122.018 57.2461 122.322 55.7422 122.322C54.2454 122.322 52.9564 122.018 51.875 121.409C50.7936 120.8 49.9629 119.93 49.3828 118.799C48.8099 117.66 48.5234 116.303 48.5234 114.728V105.887H52.7773V114.147C52.7773 115.172 52.8812 116.013 53.0889 116.672C53.3037 117.331 53.6296 117.821 54.0664 118.144C54.5033 118.459 55.0618 118.616 55.7422 118.616C56.4225 118.616 56.9811 118.459 57.418 118.144C57.8548 117.821 58.1771 117.331 58.3848 116.672C58.5996 116.013 58.707 115.172 58.707 114.147V105.887H62.9609ZM76.0664 122H65.1094V105.887H69.3633V118.294H76.0664V122ZM84.5098 122.322C83.278 122.322 82.1393 122.115 81.0938 121.699C80.0553 121.277 79.1494 120.689 78.376 119.938C77.6097 119.178 77.0153 118.29 76.5928 117.273C76.1702 116.257 75.959 115.146 75.959 113.943C75.959 112.74 76.1702 111.63 76.5928 110.613C77.0153 109.596 77.6097 108.712 78.376 107.96C79.1494 107.201 80.0553 106.614 81.0938 106.198C82.1393 105.776 83.278 105.564 84.5098 105.564C85.7487 105.564 86.8874 105.776 87.9258 106.198C88.9642 106.614 89.863 107.201 90.6221 107.96C91.3883 108.712 91.9827 109.596 92.4053 110.613C92.8278 111.63 93.0391 112.74 93.0391 113.943C93.0391 115.146 92.8278 116.257 92.4053 117.273C91.9827 118.29 91.3883 119.178 90.6221 119.938C89.863 120.689 88.9642 121.277 87.9258 121.699C86.8874 122.115 85.7487 122.322 84.5098 122.322ZM84.5098 118.616C85.1042 118.616 85.6556 118.498 86.1641 118.262C86.6725 118.025 87.113 117.696 87.4854 117.273C87.8649 116.844 88.1585 116.346 88.3662 115.78C88.5811 115.215 88.6885 114.602 88.6885 113.943C88.6885 113.285 88.5811 112.672 88.3662 112.106C88.1585 111.541 87.8649 111.047 87.4854 110.624C87.113 110.194 86.6725 109.861 86.1641 109.625C85.6556 109.389 85.1042 109.271 84.5098 109.271C83.9154 109.271 83.3604 109.389 82.8447 109.625C82.3363 109.861 81.8923 110.194 81.5127 110.624C81.1331 111.047 80.8359 111.541 80.6211 112.106C80.4134 112.672 80.3096 113.285 80.3096 113.943C80.3096 114.602 80.4134 115.215 80.6211 115.78C80.8359 116.346 81.1331 116.844 81.5127 117.273C81.8923 117.696 82.3363 118.025 82.8447 118.262C83.3604 118.498 83.9154 118.616 84.5098 118.616ZM96.6914 124.578H94.1133L94.8652 119.852H97.9805L96.6914 124.578ZM104.533 122V105.887H110.667C112.522 105.887 113.954 106.263 114.964 107.015C115.974 107.767 116.479 108.83 116.479 110.205C116.479 110.971 116.307 111.655 115.963 112.257C115.619 112.851 115.154 113.317 114.566 113.653C115.44 113.94 116.117 114.405 116.597 115.05C117.076 115.694 117.316 116.486 117.316 117.424C117.316 118.355 117.091 119.164 116.64 119.852C116.188 120.532 115.548 121.062 114.717 121.441C113.886 121.814 112.905 122 111.773 122H104.533ZM108.787 112.386H110.377C110.986 112.386 111.455 112.264 111.784 112.021C112.121 111.77 112.289 111.415 112.289 110.957C112.289 110.535 112.121 110.201 111.784 109.958C111.448 109.715 110.979 109.593 110.377 109.593H108.787V112.386ZM108.787 118.294H110.667C111.154 118.294 111.569 118.24 111.913 118.133C112.257 118.018 112.518 117.857 112.697 117.649C112.876 117.435 112.966 117.177 112.966 116.876C112.966 116.575 112.887 116.325 112.729 116.124C112.572 115.916 112.339 115.762 112.031 115.662C111.73 115.555 111.362 115.501 110.925 115.501H108.787V118.294ZM133.193 122H128.488L125.416 116.672H123.182V122H118.928V105.887H125.738C127.135 105.887 128.324 106.098 129.305 106.521C130.286 106.943 131.034 107.559 131.55 108.368C132.073 109.17 132.334 110.141 132.334 111.279C132.334 112.346 132.105 113.267 131.646 114.04C131.188 114.813 130.526 115.422 129.659 115.866L133.193 122ZM123.182 113.396H125.405C126.257 113.396 126.898 113.238 127.328 112.923C127.765 112.601 127.983 112.124 127.983 111.494C127.983 110.864 127.765 110.391 127.328 110.076C126.898 109.754 126.257 109.593 125.405 109.593H123.182V113.396ZM137.974 122H133.516L139.811 105.887H144.269L150.553 122H146.095L145.053 119.132H139.016L137.974 122ZM140.369 115.426H143.71L142.034 110.828L140.369 115.426ZM163.787 122H151.305V118.885L158.062 109.593H151.734V105.887H163.68V109.109L156.998 118.294H163.787V122ZM165.506 122V105.887H169.76V122H165.506ZM182.865 122H171.908V105.887H176.162V118.294H182.865V122Z" fill="#F01870"/>
</svg>
