<svg width="200" height="200" viewBox="0 0 200 200" fill="none" xmlns="http://www.w3.org/2000/svg">
<rect width="200" height="200" fill="#8D1A4C"/>
<path d="M37.1367 93.1523L39.1348 89.9082C39.6576 90.3164 40.1445 90.6494 40.5957 90.9072C41.054 91.165 41.498 91.3548 41.9277 91.4766C42.3646 91.5911 42.8086 91.6484 43.2598 91.6484C43.7038 91.6484 44.0833 91.5983 44.3984 91.498C44.7135 91.3906 44.9535 91.2402 45.1182 91.0469C45.29 90.8464 45.376 90.61 45.376 90.3379C45.376 89.9941 45.2542 89.7005 45.0107 89.457C44.7673 89.2135 44.4414 88.9951 44.0332 88.8018C43.6322 88.6084 43.1917 88.415 42.7119 88.2217C42.1963 88.014 41.6699 87.7848 41.1328 87.5342C40.5957 87.2764 40.1016 86.9648 39.6504 86.5996C39.1992 86.2344 38.834 85.7904 38.5547 85.2676C38.2754 84.7376 38.1357 84.0931 38.1357 83.334C38.1357 82.3314 38.3864 81.4756 38.8877 80.7666C39.3962 80.0505 40.0872 79.5062 40.9609 79.1338C41.8418 78.7542 42.8372 78.5645 43.9473 78.5645C44.7565 78.5645 45.6123 78.6719 46.5146 78.8867C47.417 79.1016 48.3301 79.4382 49.2539 79.8965L47.5996 83.3125C47.084 82.9974 46.5182 82.7467 45.9023 82.5605C45.2936 82.3672 44.735 82.2705 44.2266 82.2705C43.8757 82.2705 43.5677 82.3171 43.3027 82.4102C43.0449 82.5033 42.8444 82.6393 42.7012 82.8184C42.5579 82.9902 42.4863 83.1943 42.4863 83.4307C42.4863 83.7458 42.6081 84.0251 42.8516 84.2686C43.0951 84.5049 43.4173 84.7233 43.8184 84.9238C44.2194 85.1243 44.6562 85.3285 45.1289 85.5361C45.6445 85.7581 46.1709 86.0052 46.708 86.2773C47.2523 86.5495 47.75 86.8717 48.2012 87.2441C48.6595 87.6165 49.0283 88.0641 49.3076 88.5869C49.5869 89.1025 49.7266 89.722 49.7266 90.4453C49.7266 91.4121 49.4616 92.2643 48.9316 93.002C48.4089 93.7324 47.6748 94.3018 46.7295 94.71C45.7913 95.1182 44.6992 95.3223 43.4531 95.3223C42.293 95.3223 41.1758 95.1361 40.1016 94.7637C39.0273 94.3913 38.0391 93.8542 37.1367 93.1523ZM59.459 95.3223C58.2272 95.3223 57.0885 95.1146 56.043 94.6992C55.0046 94.2767 54.0986 93.6895 53.3252 92.9375C52.5589 92.1784 51.9645 91.2904 51.542 90.2734C51.1195 89.2565 50.9082 88.1465 50.9082 86.9434C50.9082 85.7402 51.1195 84.6302 51.542 83.6133C51.9645 82.5964 52.5589 81.7119 53.3252 80.96C54.0986 80.2008 55.0046 79.6136 56.043 79.1982C57.0885 78.7757 58.2272 78.5645 59.459 78.5645C60.6979 78.5645 61.8366 78.7757 62.875 79.1982C63.9134 79.6136 64.8122 80.2008 65.5713 80.96C66.3376 81.7119 66.932 82.5964 67.3545 83.6133C67.777 84.6302 67.9883 85.7402 67.9883 86.9434C67.9883 88.1465 67.777 89.2565 67.3545 90.2734C66.932 91.2904 66.3376 92.1784 65.5713 92.9375C64.8122 93.6895 63.9134 94.2767 62.875 94.6992C61.8366 95.1146 60.6979 95.3223 59.459 95.3223ZM59.459 91.6162C60.0534 91.6162 60.6048 91.498 61.1133 91.2617C61.6217 91.0254 62.0622 90.696 62.4346 90.2734C62.8141 89.8438 63.1077 89.346 63.3154 88.7803C63.5303 88.2145 63.6377 87.6022 63.6377 86.9434C63.6377 86.2845 63.5303 85.6722 63.3154 85.1064C63.1077 84.5407 62.8141 84.0465 62.4346 83.624C62.0622 83.1943 61.6217 82.8613 61.1133 82.625C60.6048 82.3887 60.0534 82.2705 59.459 82.2705C58.8646 82.2705 58.3096 82.3887 57.7939 82.625C57.2855 82.8613 56.8415 83.1943 56.4619 83.624C56.0824 84.0465 55.7852 84.5407 55.5703 85.1064C55.3626 85.6722 55.2588 86.2845 55.2588 86.9434C55.2588 87.6022 55.3626 88.2145 55.5703 88.7803C55.7852 89.346 56.0824 89.8438 56.4619 90.2734C56.8415 90.696 57.2855 91.0254 57.7939 91.2617C58.3096 91.498 58.8646 91.6162 59.459 91.6162ZM69.707 95V78.8867H80.0195V82.5928H73.9609V85.085H79.5898V88.791H73.9609V95H69.707ZM90.0312 95H85.7773V82.5928H81.3086V78.8867H94.5V82.5928H90.0312V95ZM113.438 95H109.453L106.703 85.8154L103.942 95H99.957L94.7148 78.8867H99.1836L101.944 88.1465L104.705 78.8867H108.69L111.44 88.125L114.19 78.8867H118.659L113.438 95ZM122.054 95H117.596L123.891 78.8867H128.349L134.633 95H130.175L129.133 92.1318H123.096L122.054 95ZM124.449 88.4258H127.79L126.114 83.8281L124.449 88.4258ZM150.08 95H145.375L142.303 89.6719H140.068V95H135.814V78.8867H142.625C144.021 78.8867 145.21 79.098 146.191 79.5205C147.173 79.943 147.921 80.5589 148.437 81.3682C148.959 82.1702 149.221 83.1406 149.221 84.2793C149.221 85.3464 148.992 86.2666 148.533 87.04C148.075 87.8135 147.412 88.4222 146.546 88.8662L150.08 95ZM140.068 86.3955H142.292C143.144 86.3955 143.785 86.238 144.215 85.9229C144.652 85.6006 144.87 85.1243 144.87 84.4941C144.87 83.8639 144.652 83.3913 144.215 83.0762C143.785 82.7539 143.144 82.5928 142.292 82.5928H140.068V86.3955ZM151.369 95V78.8867H162.111V82.5928H155.623V85.085H161.682V88.791H155.623V91.2939H162.219V95H151.369ZM44.7852 122V105.887H55.5273V109.593H49.0391V112.085H55.0977V115.791H49.0391V118.294H55.6348V122H44.7852ZM72.7363 122H67.7305L61.9297 112.439V122H57.6758V105.887H62.6816L68.4824 115.479V105.887H72.7363V122ZM86.1533 110.538C85.7666 110.137 85.2939 109.826 84.7354 109.604C84.1768 109.382 83.5752 109.271 82.9307 109.271C82.3076 109.271 81.7419 109.378 81.2334 109.593C80.7321 109.8 80.2988 110.105 79.9336 110.506C79.5755 110.907 79.2962 111.387 79.0957 111.945C78.9023 112.504 78.8057 113.134 78.8057 113.836C78.8057 114.552 78.9095 115.204 79.1172 115.791C79.3249 116.378 79.6221 116.883 80.0088 117.306C80.3955 117.721 80.8538 118.043 81.3838 118.272C81.9209 118.502 82.5153 118.616 83.167 118.616C83.654 118.616 84.098 118.552 84.499 118.423C84.9001 118.294 85.2546 118.104 85.5625 117.854C85.8704 117.603 86.1318 117.295 86.3467 116.93C86.5615 116.557 86.7262 116.135 86.8408 115.662H82.9844V112.439H90.5791L90.6973 114.062C90.6973 115.286 90.5111 116.407 90.1387 117.424C89.7734 118.434 89.2507 119.304 88.5703 120.034C87.89 120.765 87.0771 121.33 86.1318 121.731C85.1937 122.125 84.1481 122.322 82.9951 122.322C81.792 122.322 80.6712 122.111 79.6328 121.688C78.6016 121.259 77.6956 120.664 76.915 119.905C76.1416 119.139 75.5365 118.244 75.0996 117.22C74.6699 116.196 74.4551 115.089 74.4551 113.9C74.4551 112.726 74.6663 111.634 75.0889 110.624C75.5114 109.614 76.1022 108.73 76.8613 107.971C77.6204 107.212 78.5049 106.621 79.5146 106.198C80.5316 105.776 81.6309 105.564 82.8125 105.564C83.9225 105.564 85.0039 105.758 86.0566 106.145C87.1094 106.531 88.0547 107.083 88.8926 107.799L86.1533 110.538ZM92.416 122V105.887H96.6699V122H92.416ZM113.879 122H108.873L103.072 112.439V122H98.8184V105.887H103.824L109.625 115.479V105.887H113.879V122ZM116.027 122V105.887H126.77V109.593H120.281V112.085H126.34V115.791H120.281V118.294H126.877V122H116.027ZM128.918 122V105.887H139.66V109.593H133.172V112.085H139.23V115.791H133.172V118.294H139.768V122H128.918ZM156.074 122H151.369L148.297 116.672H146.062V122H141.809V105.887H148.619C150.016 105.887 151.204 106.098 152.186 106.521C153.167 106.943 153.915 107.559 154.431 108.368C154.953 109.17 155.215 110.141 155.215 111.279C155.215 112.346 154.986 113.267 154.527 114.04C154.069 114.813 153.407 115.422 152.54 115.866L156.074 122ZM146.062 113.396H148.286C149.138 113.396 149.779 113.238 150.209 112.923C150.646 112.601 150.864 112.124 150.864 111.494C150.864 110.864 150.646 110.391 150.209 110.076C149.779 109.754 149.138 109.593 148.286 109.593H146.062V113.396Z" fill="#60C1BE"/>
</svg>
