<svg width="200" height="200" viewBox="0 0 200 200" fill="none" xmlns="http://www.w3.org/2000/svg">
<rect width="200" height="200" fill="#385B3A"/>
<path d="M48.5664 108H44.5811L41.8311 98.8154L39.0703 108H35.085L29.8428 91.8867H34.3115L37.0723 101.146L39.833 91.8867H43.8184L46.5684 101.125L49.3184 91.8867H53.7871L48.5664 108ZM54.9795 108V91.8867H65.7217V95.5928H59.2334V98.085H65.292V101.791H59.2334V104.294H65.8291V108H54.9795ZM67.8701 108V91.8867H74.0039C75.8587 91.8867 77.291 92.2627 78.3008 93.0146C79.3105 93.7666 79.8154 94.8301 79.8154 96.2051C79.8154 96.9714 79.6436 97.6553 79.2998 98.2568C78.9561 98.8512 78.4906 99.3167 77.9033 99.6533C78.777 99.9398 79.4538 100.405 79.9336 101.05C80.4134 101.694 80.6533 102.486 80.6533 103.424C80.6533 104.355 80.4277 105.164 79.9766 105.852C79.5254 106.532 78.8844 107.062 78.0537 107.441C77.223 107.814 76.2419 108 75.1104 108H67.8701ZM72.124 98.3857H73.7139C74.3226 98.3857 74.7917 98.264 75.1211 98.0205C75.4577 97.7699 75.626 97.4154 75.626 96.957C75.626 96.5345 75.4577 96.2015 75.1211 95.958C74.7845 95.7145 74.3154 95.5928 73.7139 95.5928H72.124V98.3857ZM72.124 104.294H74.0039C74.4909 104.294 74.9062 104.24 75.25 104.133C75.5938 104.018 75.8551 103.857 76.0342 103.649C76.2132 103.435 76.3027 103.177 76.3027 102.876C76.3027 102.575 76.224 102.325 76.0664 102.124C75.9089 101.916 75.6761 101.762 75.3682 101.662C75.0674 101.555 74.6986 101.501 74.2617 101.501H72.124V104.294ZM86.9912 108V91.8867H92.6953C94.6217 91.8867 96.2975 92.2197 97.7227 92.8857C99.1549 93.5518 100.265 94.4899 101.053 95.7002C101.848 96.9033 102.245 98.3177 102.245 99.9434C102.245 101.562 101.848 102.976 101.053 104.187C100.265 105.397 99.1549 106.335 97.7227 107.001C96.2975 107.667 94.6217 108 92.6953 108H86.9912ZM91.2451 104.294H92.835C93.9235 104.294 94.8438 104.126 95.5957 103.789C96.3477 103.452 96.917 102.962 97.3037 102.317C97.6976 101.666 97.8945 100.874 97.8945 99.9434C97.8945 99.0052 97.6976 98.2139 97.3037 97.5693C96.917 96.9248 96.3477 96.4342 95.5957 96.0977C94.8438 95.7611 93.9235 95.5928 92.835 95.5928H91.2451V104.294ZM103.964 108V91.8867H114.706V95.5928H108.218V98.085H114.276V101.791H108.218V104.294H114.813V108H103.964ZM115.995 106.152L117.993 102.908C118.516 103.316 119.003 103.649 119.454 103.907C119.912 104.165 120.356 104.355 120.786 104.477C121.223 104.591 121.667 104.648 122.118 104.648C122.562 104.648 122.942 104.598 123.257 104.498C123.572 104.391 123.812 104.24 123.977 104.047C124.148 103.846 124.234 103.61 124.234 103.338C124.234 102.994 124.113 102.701 123.869 102.457C123.626 102.214 123.3 101.995 122.892 101.802C122.491 101.608 122.05 101.415 121.57 101.222C121.055 101.014 120.528 100.785 119.991 100.534C119.454 100.276 118.96 99.9648 118.509 99.5996C118.058 99.2344 117.692 98.7904 117.413 98.2676C117.134 97.7376 116.994 97.0931 116.994 96.334C116.994 95.3314 117.245 94.4756 117.746 93.7666C118.255 93.0505 118.946 92.5062 119.819 92.1338C120.7 91.7542 121.696 91.5645 122.806 91.5645C123.615 91.5645 124.471 91.6719 125.373 91.8867C126.275 92.1016 127.188 92.4382 128.112 92.8965L126.458 96.3125C125.942 95.9974 125.377 95.7467 124.761 95.5605C124.152 95.3672 123.593 95.2705 123.085 95.2705C122.734 95.2705 122.426 95.3171 122.161 95.4102C121.903 95.5033 121.703 95.6393 121.56 95.8184C121.416 95.9902 121.345 96.1943 121.345 96.4307C121.345 96.7458 121.466 97.0251 121.71 97.2686C121.953 97.5049 122.276 97.7233 122.677 97.9238C123.078 98.1243 123.515 98.3285 123.987 98.5361C124.503 98.7581 125.029 99.0052 125.566 99.2773C126.111 99.5495 126.608 99.8717 127.06 100.244C127.518 100.617 127.887 101.064 128.166 101.587C128.445 102.103 128.585 102.722 128.585 103.445C128.585 104.412 128.32 105.264 127.79 106.002C127.267 106.732 126.533 107.302 125.588 107.71C124.65 108.118 123.558 108.322 122.312 108.322C121.151 108.322 120.034 108.136 118.96 107.764C117.886 107.391 116.897 106.854 115.995 106.152ZM130.196 108V91.8867H134.45V108H130.196ZM147.867 96.5381C147.48 96.137 147.008 95.8255 146.449 95.6035C145.891 95.3815 145.289 95.2705 144.645 95.2705C144.021 95.2705 143.456 95.3779 142.947 95.5928C142.446 95.8005 142.013 96.1048 141.647 96.5059C141.289 96.9069 141.01 97.3867 140.81 97.9453C140.616 98.5039 140.52 99.1341 140.52 99.8359C140.52 100.552 140.623 101.204 140.831 101.791C141.039 102.378 141.336 102.883 141.723 103.306C142.109 103.721 142.568 104.043 143.098 104.272C143.635 104.502 144.229 104.616 144.881 104.616C145.368 104.616 145.812 104.552 146.213 104.423C146.614 104.294 146.968 104.104 147.276 103.854C147.584 103.603 147.846 103.295 148.061 102.93C148.275 102.557 148.44 102.135 148.555 101.662H144.698V98.4395H152.293L152.411 100.062C152.411 101.286 152.225 102.407 151.853 103.424C151.487 104.434 150.965 105.304 150.284 106.034C149.604 106.765 148.791 107.33 147.846 107.731C146.908 108.125 145.862 108.322 144.709 108.322C143.506 108.322 142.385 108.111 141.347 107.688C140.315 107.259 139.41 106.664 138.629 105.905C137.855 105.139 137.25 104.244 136.813 103.22C136.384 102.196 136.169 101.089 136.169 99.9004C136.169 98.7259 136.38 97.6338 136.803 96.624C137.225 95.6143 137.816 94.7298 138.575 93.9707C139.334 93.2116 140.219 92.6208 141.229 92.1982C142.245 91.7757 143.345 91.5645 144.526 91.5645C145.636 91.5645 146.718 91.7578 147.771 92.1445C148.823 92.5312 149.769 93.0827 150.606 93.7988L147.867 96.5381ZM169.19 108H164.185L158.384 98.4395V108H154.13V91.8867H159.136L164.937 101.479V91.8867H169.19V108Z" fill="#DA42C1"/>
</svg>
